<svg width="26" height="42" viewBox="0 0 26 20" fill="none" xmlns="http://www.w3.org/2000/svg">
<g filter="url(#filter0_d_72_6025)">
<path d="M16.755 11H15.965L15.685 10.73C16.665 9.59 17.255 8.11 17.255 6.5C17.255 2.91 14.345 0 10.755 0C7.165 0 4.255 2.91 4.255 6.5C4.255 10.09 7.165 13 10.755 13C12.365 13 13.845 12.41 14.985 11.43L15.255 11.71V12.5L20.255 17.49L21.745 16L16.755 11ZM10.755 11C8.26501 11 6.255 8.99 6.255 6.5C6.255 4.01 8.26501 2 10.755 2C13.245 2 15.255 4.01 15.255 6.5C15.255 8.99 13.245 11 10.755 11Z" fill="#285D9A"/>
</g>
<defs>
<filter id="filter0_d_72_6025" x="-3" y="0" width="32" height="49.49" filterUnits="userSpaceOnUse" color-interpolation-filters="sRGB">
<feFlood flood-opacity="0" result="BackgroundImageFix"/>
<feColorMatrix in="SourceAlpha" type="matrix" values="0 0 0 0 0 0 0 0 0 0 0 0 0 0 0 0 0 0 127 0" result="hardAlpha"/>
<feOffset dy="4"/>
<feGaussianBlur stdDeviation="2"/>
<feComposite in2="hardAlpha" operator="out"/>
<feColorMatrix type="matrix" values="0 0 0 0 0 0 0 0 0 0 0 0 0 0 0 0 0 0 0.25 0"/>
<feBlend mode="normal" in2="BackgroundImageFix" result="effect1_dropShadow_72_6025"/>
<feBlend mode="normal" in="SourceGraphic" in2="effect1_dropShadow_72_6025" result="shape"/>
</filter>
</defs>
</svg>
